<?xml version="1.0" encoding="UTF-8"?>
<svg id="_レイヤー_2" xmlns="http://www.w3.org/2000/svg" xmlns:xlink="http://www.w3.org/1999/xlink" version="1.1" viewBox="0 0 448 115">
  <!-- Generator: Adobe Illustrator 30.0.0, SVG Export Plug-In . SVG Version: 2.1.1 Build 123)  -->
  <defs>
    <style>
      .st0 {
        fill: #231815;
      }

      .st1 {
        fill: url(#_名称未設定グラデーション);
      }
    </style>
    <linearGradient id="_名称未設定グラデーション" data-name="名称未設定グラデーション" x1="25.54" y1="54.5" x2="130.56" y2="54.5" gradientTransform="translate(0 112) scale(1 -1)" gradientUnits="userSpaceOnUse">
      <stop offset=".09" stop-color="#3e4d97"/>
      <stop offset=".38" stop-color="#18264b"/>
      <stop offset="1" stop-color="#d8372d"/>
    </linearGradient>
  </defs>
  <g id="_レイヤー_1-2">
    <path class="st1" d="M85.36,38.06l-7.4,17.03-7.89-16.81,7.9-19.65,7.4,19.43h-.01ZM25.54,18.63l10.26,24.45,14.85,9.17-6.33-12.88,13.54,8.08,19.87,45.2,20.74-45.41,12.66-7.64-6.11,12.88,15.07-9.17,10.47-24.68-40.17,23.36-12.34,27.95-12.34-28.17L25.54,18.63ZM44.32,53.13l10.7,25.11,21.62,18.12-6.55-15.07-8.3-6.55-6.99-15.28s-10.48-6.33-10.48-6.33ZM101.3,59.47l-6.99,15.28-8.3,6.55-6.55,15.07,21.62-18.12,10.7-25.11s-10.48,6.33-10.48,6.33Z"/>
    <g>
      <path class="st0" d="M164.81,84.65l-18.63-47.79h7.43l14.38,39.15h.2l14.38-39.15h7.22l-18.76,47.79h-6.22Z"/>
      <path class="st0" d="M214.76,36.86l20.52,47.79h-7.56l-4.86-11.74h-22.68l-4.79,11.74h-7.42l20.72-47.79h6.08-.01ZM202.54,67.03h17.89l-8.91-22.34-8.98,22.34Z"/>
      <path class="st0" d="M241.43,84.65v-47.79h6.68v41.85h21.33v5.94h-28.01Z"/>
      <path class="st0" d="M275.92,84.65v-47.79h6.68v47.79s-6.68,0-6.68,0Z"/>
      <path class="st0" d="M315.54,36.86l20.52,47.79h-7.56l-4.86-11.74h-22.68l-4.79,11.74h-7.43l20.72-47.79s6.08,0,6.08,0ZM303.33,67.03h17.89l-8.91-22.34-8.98,22.34h0Z"/>
      <path class="st0" d="M342.21,84.65v-47.79h15.32c9.25,0,17.01,3.51,17.01,13.23,0,7.02-4.79,11.47-11.61,12.62l13.36,21.94h-8.1l-12.15-21.26h-7.15v21.26h-6.68ZM348.89,57.79h7.7c6.28,0,11.2-1.96,11.2-7.69s-4.93-7.56-10.73-7.56h-8.17v15.25Z"/>
      <path class="st0" d="M383.64,84.65v-47.79h6.68v21.06h.14l21.33-21.06h9.25l-23.22,21.87,24.64,25.92h-9.58l-22.41-24.7h-.14v24.7h-6.69Z"/>
    </g>
  </g>
</svg>