<?xml version="1.0" encoding="UTF-8"?>
<svg id="_レイヤー_1" xmlns="http://www.w3.org/2000/svg" xmlns:xlink="http://www.w3.org/1999/xlink" version="1.1" viewBox="0 0 640.87 624.51">
  <!-- Generator: Adobe Illustrator 30.0.0, SVG Export Plug-In . SVG Version: 2.1.1 Build 123)  -->
  <defs>
    <style>
      .st0 {
        fill: #231815;
      }

      .st1 {
        fill: url(#_名称未設定グラデーション);
      }
    </style>
    <linearGradient id="_名称未設定グラデーション" data-name="名称未設定グラデーション" x1="83.82" y1="369.2" x2="557.05" y2="369.2" gradientTransform="translate(0 626) scale(1 -1)" gradientUnits="userSpaceOnUse">
      <stop offset=".09" stop-color="#4150a1"/>
      <stop offset=".38" stop-color="#1a274c"/>
      <stop offset="1" stop-color="#e5352b"/>
    </linearGradient>
  </defs>
  <path class="st1" d="M353.39,169.24l-33.34,76.74-35.53-75.76,35.53-88.55,33.34,87.56ZM83.82,81.67l46.24,110.2,66.9,41.32-28.53-58.05,61,36.4,89.53,203.66,93.46-204.64,57.07-34.43-27.55,58.05,67.88-41.32,47.23-111.19-181.03,105.27-55.59,125.93-55.59-126.92L83.82,81.67ZM168.43,237.12l48.21,113.14,97.4,81.66-29.52-67.88-37.39-29.52-31.49-68.87-47.22-28.53h0ZM425.21,265.65l-31.49,68.87-37.39,29.52-29.52,67.88,97.4-81.66,48.21-113.14-47.22,28.53h0Z"/>
  <g>
    <path class="st0" d="M143.23,542.83l-27.62-70.86h11.01l21.32,58.05h.3l21.32-58.05h10.71l-27.82,70.86h-9.21Z"/>
    <path class="st0" d="M217.29,471.98l30.42,70.86h-11.21l-7.21-17.41h-33.63l-7.1,17.41h-11.01l30.73-70.86h9.01,0ZM199.18,516.71h26.52l-13.21-33.13-13.31,33.13Z"/>
    <path class="st0" d="M256.83,542.83v-70.86h9.91v62.05h31.63v8.81h-41.54,0Z"/>
    <path class="st0" d="M307.97,542.83v-70.86h9.91v70.86h-9.91Z"/>
    <path class="st0" d="M366.72,471.98l30.42,70.86h-11.21l-7.21-17.41h-33.63l-7.1,17.41h-11.01l30.73-70.86h9.01ZM348.61,516.71h26.52l-13.21-33.13-13.31,33.13h0Z"/>
    <path class="st0" d="M406.26,542.83v-70.86h22.72c13.71,0,25.22,5.21,25.22,19.61,0,10.41-7.1,17.01-17.21,18.71l19.81,32.53h-12.01l-18.02-31.52h-10.61v31.52h-9.91,0ZM416.17,503h11.41c9.31,0,16.61-2.9,16.61-11.41s-7.3-11.21-15.91-11.21h-12.11v22.62h0Z"/>
    <path class="st0" d="M467.71,542.83v-70.86h9.91v31.23h.2l31.63-31.23h13.71l-34.43,32.42,36.53,38.44h-14.21l-33.23-36.63h-.2v36.63h-9.91Z"/>
  </g>
</svg>